<svg width="192" height="54" viewBox="0 0 192 54" fill="none" xmlns="http://www.w3.org/2000/svg">
<path fill-rule="evenodd" clip-rule="evenodd" d="M16.7448 6.37085C16.498 6.44904 16.2721 6.65648 16.1783 6.89112C16.1228 7.03007 16.1202 7.14889 16.1202 9.58127V12.126L16.1917 12.2649C16.3424 12.5574 16.6297 12.7274 16.9753 12.7284C17.3383 12.7295 17.6071 12.5532 17.7435 12.2242C17.7923 12.1065 17.7965 11.9013 17.7965 9.58127C17.7965 7.23283 17.7928 7.05581 17.7415 6.91378C17.6748 6.72929 17.483 6.51168 17.3137 6.42825C17.1784 6.36164 16.8717 6.33069 16.7448 6.37085ZM8.24874 8.72719C7.88216 8.85449 7.69321 9.11187 7.69321 9.48375C7.69321 9.75764 7.73606 9.86469 8.07382 10.4345C8.50541 11.1627 9.78999 13.2248 9.88087 13.3355C9.98877 13.4667 10.1573 13.5734 10.3253 13.6168C10.4997 13.6618 10.7693 13.594 11.0304 13.4394C11.3865 13.2287 11.4993 12.9513 11.3813 12.5764C11.2931 12.296 11.2646 12.2439 10.5912 11.1302C10.2749 10.607 9.88366 9.95601 9.72177 9.68339C9.37288 9.09622 9.29782 8.99338 9.12162 8.86211C8.87362 8.67724 8.54063 8.62579 8.24874 8.72719ZM25.6442 10.1785C25.4709 10.2255 25.2503 10.371 25.1346 10.5147C24.9478 10.7466 23.3594 12.9062 23.138 13.2292C22.4271 14.2661 22.3944 14.6712 22.9963 14.9811C23.2014 15.0866 23.2419 15.097 23.45 15.0965C23.8891 15.0955 24.0946 14.9212 24.7322 14.0089C24.981 13.6529 25.487 12.9579 25.8568 12.4643C26.6565 11.3969 26.7216 11.2846 26.7195 10.977C26.7178 10.7171 26.6159 10.4795 26.4556 10.3615C26.217 10.1858 25.8898 10.112 25.6442 10.1785ZM15.0992 14.3085C13.9162 14.3939 12.1931 14.8838 10.8781 15.5088C8.7802 16.5058 6.70559 18.1139 5.03 20.0418C4.66658 20.4599 3.94366 21.3818 3.63584 21.8197C2.05104 24.0737 0.915422 26.6219 0.380025 29.1254C0.265339 29.6616 0.12371 30.6058 0.0549222 31.2926C-0.0178274 32.0187 -0.0184065 33.5362 0.0537946 34.2345C0.337296 36.9769 1.24439 39.377 2.73264 41.3226C3.74995 42.6525 5.41977 43.9666 7.03694 44.7099C8.91998 45.5754 11.1476 46.0043 13.1471 45.8863C15.5183 45.7464 17.4793 45.0994 19.5337 43.7792C20.3523 43.2532 21.0299 42.7215 21.8454 41.9651L22.2371 41.6019L22.2171 41.7472C22.2062 41.827 22.1369 42.0797 22.0633 42.3084C21.67 43.5312 20.9578 44.7797 20.0737 45.7963C19.7613 46.1555 19.0145 46.859 18.6041 47.1806C18.1264 47.5551 18.1519 47.6231 18.7784 47.6442C19.189 47.658 19.5048 47.6233 19.9495 47.5156C21.4968 47.1405 23.1672 46.0907 24.44 44.693C25.6363 43.3796 26.5875 41.6477 27.1518 39.7556C27.3932 38.9458 27.5206 38.3722 27.7016 37.2794C27.7794 36.8102 27.8904 36.1548 27.9485 35.8231C28.0065 35.4914 28.1293 34.7434 28.2212 34.161C28.3957 33.0563 28.5203 32.2816 28.7228 31.0425C28.8582 30.2136 29.0379 28.988 29.0905 28.5334C29.1486 28.032 29.0868 27.8087 28.847 27.6527L28.7441 27.5858H25.0777C21.3091 27.5858 20.9672 27.5943 20.2499 27.7068C17.4095 28.1516 14.8277 29.5559 13.1574 31.5641C12.5712 32.269 12.005 33.1532 11.6376 33.9376C10.9299 35.4486 10.5077 37.3513 10.5697 38.7504C10.5952 39.3271 10.6617 39.6182 10.7678 39.6182C10.828 39.6182 10.8291 39.6165 11.1747 39.0036C11.8343 37.8337 12.5116 36.9628 13.4994 36.0143C15.1568 34.423 17.3522 33.0727 19.2829 32.4573C19.7304 32.3146 20.5547 32.1345 20.5547 32.1795C20.5547 32.1943 20.5307 32.2153 20.5014 32.226C20.2492 32.3187 19.0938 33.013 18.3884 33.4958C15.6828 35.3474 14.1262 36.8679 12.8583 38.8975C12.6741 39.1924 12.3151 39.8531 12.3309 39.8683C12.356 39.8925 13.1299 39.971 13.6605 40.003C14.2664 40.0397 15.1262 40.0077 15.7393 39.9258C17.6683 39.6678 19.4347 38.9176 21.0618 37.6652C21.9094 37.0129 22.4871 36.4328 23.4017 35.3155C23.5175 35.1739 23.6167 35.0622 23.6219 35.0673C23.6271 35.0723 23.5852 35.2213 23.5288 35.3983C23.0439 36.9184 22.304 38.2962 21.4603 39.2505C20.3861 40.4655 19.0759 41.3997 17.5831 42.0153C16.3488 42.5241 15.1924 42.749 13.8191 42.7474C13.0983 42.7464 12.8002 42.7233 12.1277 42.6161C10.0237 42.2806 8.05704 41.1459 6.77931 39.5299C5.60166 38.0406 4.90148 36.1557 4.67012 33.852C4.61773 33.3304 4.6173 31.606 4.66942 31.1161C5.00226 27.9882 5.90397 25.3906 7.47783 23.0258C8.24978 21.8659 9.25305 20.7692 10.3492 19.887C11.1939 19.2072 12.2247 18.584 13.1126 18.2162C14.1867 17.7712 14.9319 17.5996 16.0593 17.5377C17.1605 17.4771 18.7031 17.8098 19.6988 18.3225C21.1879 19.0895 22.1598 20.3288 22.3533 21.7076C22.3954 22.008 22.4519 22.1087 22.6279 22.197C22.7447 22.2556 22.7949 22.2633 22.9777 22.2505C23.3211 22.2263 24.1219 21.967 24.6964 21.694C24.912 21.5916 25.0439 21.4466 25.0981 21.2526C25.1637 21.0174 24.9646 20.1821 24.6869 19.5278C24.1263 18.2065 23.262 17.1046 22.0938 16.2218C20.722 15.1853 18.9558 14.5249 17.043 14.3333C16.6377 14.2927 15.5166 14.2784 15.0992 14.3085ZM2.91117 15.0873C2.22245 15.2783 2.23531 16.1625 2.93181 16.5065C3.06984 16.5747 4.24125 17.0275 4.53879 17.1277C5.06285 17.3042 5.42965 17.1934 5.73406 16.7668C5.83616 16.6237 5.84829 16.5871 5.84877 16.421C5.84926 16.2613 5.83649 16.2179 5.75789 16.1112C5.61333 15.9151 5.46869 15.8361 4.70602 15.537C3.86237 15.2061 3.6206 15.1246 3.36038 15.0839C3.1318 15.0481 3.05028 15.0487 2.91117 15.0873ZM28.2655 18.4111C27.9889 18.4248 27.6544 18.4555 27.5221 18.4795C26.9223 18.588 26.4909 18.9586 26.5871 19.2825C26.6393 19.4583 26.8138 19.7357 26.9356 19.8362C27.1463 20.0103 27.3121 20.0265 28.1169 19.9521C29.1583 19.8558 29.5145 19.7989 29.7272 19.6948C30.2991 19.4151 30.3882 18.7031 29.8836 18.446C29.7578 18.3819 29.7182 18.3779 29.2588 18.3819C28.989 18.3844 28.542 18.3975 28.2655 18.4111Z" fill="#1F1F1F"/>
<path d="M33.3948 0.794118C33.3948 0.355539 33.7507 0 34.1899 0C34.629 0 34.985 0.355538 34.985 0.794118V53.2059C34.985 53.6445 34.629 54 34.1899 54C33.7507 54 33.3948 53.6445 33.3948 53.2059V0.794118Z" fill="#1F1F1F"/>
<path d="M52.0437 13.6985C51.9173 13.2594 51.7396 12.8713 51.5107 12.5344C51.2818 12.1915 51.0017 11.9027 50.6704 11.6681C50.3451 11.4275 49.9717 11.244 49.55 11.1176C49.1344 10.9913 48.6736 10.9282 48.1676 10.9282C47.2219 10.9282 46.3906 11.1628 45.6739 11.632C44.963 12.1012 44.4089 12.7841 44.0113 13.6805C43.6138 14.5709 43.415 15.6598 43.415 16.9472C43.415 18.2346 43.6108 19.3295 44.0023 20.232C44.3938 21.1343 44.948 21.8232 45.6648 22.2984C46.3816 22.7677 47.2279 23.0023 48.2037 23.0023C49.0892 23.0023 49.8452 22.8459 50.4716 22.5331C51.1041 22.2142 51.586 21.7661 51.9173 21.1885C52.2546 20.6109 52.4233 19.9281 52.4233 19.1401L53.2184 19.2574H48.4477V16.3155H56.1911V18.6437C56.1911 20.268 55.8476 21.6638 55.161 22.8309C54.4743 23.992 53.5286 24.8884 52.3239 25.5201C51.1192 26.1457 49.7397 26.4586 48.1857 26.4586C46.4509 26.4586 44.9269 26.0765 43.6138 25.3125C42.3007 24.5424 41.2766 23.4505 40.5417 22.0368C39.8129 20.617 39.4484 18.9325 39.4484 16.9833C39.4484 15.4853 39.6653 14.1497 40.099 12.9766C40.5388 11.7975 41.1532 10.7988 41.9422 9.98063C42.7313 9.16245 43.6499 8.53978 44.698 8.11263C45.7461 7.68549 46.8815 7.47192 48.1044 7.47192C49.1525 7.47192 50.1283 7.62533 51.0318 7.93216C51.9354 8.23293 52.7365 8.66009 53.4352 9.21359C54.14 9.76701 54.7152 10.4258 55.161 11.1898C55.6067 11.9479 55.8929 12.7841 56.0193 13.6985H52.0437Z" fill="#1F1F1F"/>
<path d="M59.1298 26.2059V7.7246H71.5986V10.9462H63.0421V15.3499H70.9571V18.5716H63.0421V22.9843H71.6348V26.2059H59.1298Z" fill="#1F1F1F"/>
<path d="M74.709 26.2059V7.7246H87.1778V10.9462H78.6214V15.3499H86.5362V18.5716H78.6214V22.9843H87.2144V26.2059H74.709Z" fill="#1F1F1F"/>
<path d="M100.327 13.0398C100.254 12.3118 99.9442 11.7463 99.3963 11.3433C98.8477 10.9402 98.1043 10.7386 97.1644 10.7386C96.526 10.7386 95.9869 10.8289 95.5472 11.0093C95.1075 11.1838 94.7696 11.4275 94.535 11.7403C94.306 12.0531 94.1915 12.4081 94.1915 12.8051C94.1796 13.1361 94.2488 13.4248 94.399 13.6714C94.5557 13.9181 94.7696 14.1317 95.0407 14.3121C95.3118 14.4866 95.6251 14.64 95.9805 14.7724C96.3359 14.8988 96.7152 15.007 97.1191 15.0973L98.7817 15.4943C99.5887 15.6748 100.33 15.9155 101.004 16.2163C101.679 16.517 102.263 16.8871 102.757 17.3262C103.251 17.7654 103.633 18.2827 103.905 18.8783C104.181 19.4739 104.323 20.1568 104.329 20.9268C104.323 22.0578 104.034 23.0385 103.462 23.8686C102.896 24.6929 102.077 25.3335 101.004 25.7908C99.9378 26.242 98.6521 26.4675 97.1461 26.4675C95.6521 26.4675 94.3513 26.239 93.2429 25.7817C92.1409 25.3246 91.279 24.6477 90.6588 23.7513C90.0442 22.8489 89.7222 21.7329 89.692 20.4034H93.4775C93.5196 21.0231 93.6977 21.5404 94.011 21.9555C94.3299 22.3647 94.7544 22.6744 95.2848 22.885C95.8207 23.0896 96.4266 23.1918 97.1008 23.1918C97.7632 23.1918 98.3388 23.0956 98.827 22.9031C99.3208 22.7106 99.7032 22.4429 99.9744 22.0999C100.246 21.757 100.381 21.363 100.381 20.9178C100.381 20.5027 100.257 20.1538 100.01 19.871C99.7692 19.5883 99.4138 19.3476 98.9439 19.149C98.4804 18.9505 97.911 18.7701 97.2368 18.6076L95.222 18.1023C93.6612 17.7233 92.4295 17.1307 91.5263 16.3245C90.6222 15.5184 90.1738 14.4325 90.1802 13.0668C90.1738 11.9479 90.472 10.9703 91.0747 10.1341C91.6829 9.29777 92.517 8.64508 93.5769 8.17584C94.6376 7.70655 95.8422 7.47192 97.1915 7.47192C98.5646 7.47192 99.7637 7.70655 100.788 8.17584C101.817 8.64508 102.619 9.29777 103.191 10.1341C103.763 10.9703 104.058 11.9388 104.076 13.0398H100.327Z" fill="#1F1F1F"/>
<path d="M106.961 26.2059V7.7246H110.873V15.3499H118.815V7.7246H122.719V26.2059H118.815V18.5716H110.873V26.2059H106.961Z" fill="#1F1F1F"/>
<path d="M40.0403 46.0588H38.5721L42.8187 34.508H44.2644L48.511 46.0588H47.0427L43.5867 36.3354H43.4963L40.0403 46.0588ZM40.5824 41.5468H46.5006V42.7876H40.5824V41.5468Z" fill="#1F1F1F"/>
<path d="M53.8813 46.0588H50.3124V34.508H54.0395C55.1614 34.508 56.1214 34.7392 56.9195 35.2017C57.7176 35.6605 58.3294 36.3203 58.7548 37.1814C59.1802 38.0387 59.3929 39.0652 59.3929 40.2609C59.3929 41.4641 59.1784 42.5 58.7492 43.3685C58.32 44.2333 57.695 44.8989 56.8743 45.3651C56.0536 45.8276 55.056 46.0588 53.8813 46.0588ZM51.7129 44.818H53.791C54.7472 44.818 55.5397 44.6338 56.1684 44.2653C56.7972 43.8968 57.2659 43.3723 57.5746 42.6917C57.8833 42.0111 58.0376 41.2009 58.0376 40.2609C58.0376 39.3284 57.8851 38.5256 57.5802 37.8526C57.2753 37.1757 56.8198 36.6569 56.2136 36.2959C55.6074 35.9312 54.8526 35.7488 53.9492 35.7488H51.7129V44.818Z" fill="#1F1F1F"/>
<path d="M61.7421 34.508H63.4137L67.344 44.0961H67.4796L71.41 34.508H73.0816V46.0588H71.7714V37.2829H71.6585L68.0443 46.0588H66.7793L63.1652 37.2829H63.0522V46.0588H61.7421V34.508Z" fill="#1F1F1F"/>
<path d="M77.29 34.508V46.0588H75.8896V34.508H77.29Z" fill="#1F1F1F"/>
<path d="M89.269 34.508V46.0588H87.9133L81.6112 36.9896H81.4983V46.0588H80.0981V34.508H81.453L87.7781 43.5998H87.891V34.508H89.269Z" fill="#1F1F1F"/>
<path d="M100.113 46.0588H96.5443V34.508H100.271C101.393 34.508 102.353 34.7392 103.151 35.2017C103.949 35.6605 104.561 36.3203 104.986 37.1814C105.411 38.0387 105.624 39.0652 105.624 40.2609C105.624 41.4641 105.41 42.5 104.98 43.3685C104.552 44.2333 103.927 44.8989 103.106 45.3651C102.285 45.8276 101.287 46.0588 100.113 46.0588ZM97.9444 44.818H100.023C100.979 44.818 101.771 44.6338 102.4 44.2653C103.028 43.8968 103.498 43.3723 103.806 42.6917C104.115 42.0111 104.269 41.2009 104.269 40.2609C104.269 39.3284 104.117 38.5256 103.812 37.8526C103.507 37.1757 103.051 36.6569 102.445 36.2959C101.839 35.9312 101.084 35.7488 100.18 35.7488H97.9444V44.818Z" fill="#1F1F1F"/>
<path d="M107.905 46.0588H106.436L110.683 34.508H112.128L116.375 46.0588H114.907L111.451 36.3354H111.36L107.905 46.0588ZM108.446 41.5468H114.365V42.7876H108.446V41.5468Z" fill="#1F1F1F"/>
<path d="M124.501 37.3957C124.434 36.8242 124.159 36.3805 123.677 36.0647C123.195 35.7488 122.604 35.5909 121.904 35.5909C121.392 35.5909 120.944 35.6736 120.56 35.8391C120.179 36.0045 119.882 36.232 119.668 36.5215C119.456 36.811 119.351 37.14 119.351 37.5086C119.351 37.8168 119.424 38.0819 119.572 38.3038C119.722 38.5219 119.914 38.7042 120.147 38.8509C120.381 38.9937 120.626 39.1122 120.882 39.2061C121.138 39.2964 121.372 39.3697 121.587 39.4261L122.762 39.742C123.063 39.8209 123.398 39.93 123.767 40.0691C124.14 40.2082 124.496 40.3981 124.834 40.6387C125.177 40.8756 125.459 41.1802 125.681 41.5524C125.904 41.9246 126.015 42.3815 126.015 42.9229C126.015 43.5471 125.851 44.1112 125.524 44.615C125.199 45.1188 124.725 45.5192 124.1 45.8163C123.48 46.1134 122.724 46.2619 121.836 46.2619C121.008 46.2619 120.29 46.1284 119.684 45.8614C119.082 45.5944 118.608 45.2222 118.261 44.7447C117.918 44.2671 117.724 43.7126 117.68 43.0809H119.125C119.163 43.517 119.31 43.878 119.566 44.1637C119.825 44.4457 120.153 44.6563 120.549 44.7955C120.947 44.9308 121.376 44.9985 121.836 44.9985C122.37 44.9985 122.851 44.912 123.276 44.7391C123.701 44.5623 124.038 44.318 124.287 44.0059C124.535 43.69 124.659 43.3215 124.659 42.9004C124.659 42.5169 124.552 42.2048 124.337 41.9642C124.123 41.7235 123.84 41.528 123.491 41.3776C123.14 41.2272 122.762 41.0956 122.355 40.9828L120.932 40.5767C120.029 40.3173 119.313 39.9469 118.787 39.4656C118.26 38.9843 117.996 38.3545 117.996 37.5762C117.996 36.9295 118.171 36.3655 118.521 35.8842C118.875 35.3991 119.349 35.0231 119.944 34.7561C120.542 34.4854 121.211 34.3501 121.949 34.3501C122.694 34.3501 123.357 34.4836 123.937 34.7505C124.516 35.0138 124.976 35.3747 125.315 35.8334C125.657 36.2921 125.838 36.8129 125.857 37.3957H124.501Z" fill="#1F1F1F"/>
<path d="M128.317 46.0588V34.508H129.718V39.6517H135.885V34.508H137.285V46.0588H135.885V40.8925H129.718V46.0588H128.317Z" fill="#1F1F1F"/>
<path d="M140.089 46.0588V34.508H144.132C144.938 34.508 145.602 34.6471 146.125 34.9254C146.649 35.1999 147.039 35.5702 147.295 36.0365C147.551 36.4989 147.679 37.0122 147.679 37.5762C147.679 38.0725 147.59 38.4824 147.413 38.8057C147.24 39.1291 147.01 39.3847 146.724 39.5728C146.442 39.7608 146.135 39.8999 145.804 39.9902V40.1029C146.158 40.1255 146.513 40.2496 146.871 40.4752C147.229 40.7008 147.528 41.0241 147.769 41.4452C148.01 41.8664 148.13 42.3815 148.13 42.9907C148.13 43.5697 147.998 44.0904 147.735 44.5529C147.471 45.0154 147.055 45.382 146.487 45.6527C145.918 45.9234 145.179 46.0588 144.268 46.0588H140.089ZM141.49 44.818H144.268C145.182 44.818 145.832 44.6413 146.216 44.2879C146.604 43.9307 146.798 43.4983 146.798 42.9907C146.798 42.5996 146.698 42.2386 146.498 41.9077C146.298 41.5731 146.015 41.3062 145.646 41.1069C145.277 40.9038 144.84 40.8023 144.335 40.8023H141.49V44.818ZM141.49 39.5841H144.087C144.509 39.5841 144.889 39.5013 145.227 39.3359C145.57 39.1705 145.841 38.9373 146.041 38.6365C146.244 38.3357 146.345 37.9823 146.345 37.5762C146.345 37.0686 146.169 36.638 145.815 36.2847C145.461 35.9275 144.9 35.7488 144.132 35.7488H141.49V39.5841Z" fill="#1F1F1F"/>
<path d="M160.19 40.2834C160.19 41.5017 159.97 42.5545 159.529 43.4418C159.089 44.3292 158.484 45.0135 157.716 45.4948C156.948 45.9761 156.071 46.2168 155.084 46.2168C154.099 46.2168 153.221 45.9761 152.453 45.4948C151.685 45.0135 151.081 44.3292 150.641 43.4418C150.2 42.5545 149.98 41.5017 149.98 40.2834C149.98 39.0652 150.2 38.0123 150.641 37.125C151.081 36.2377 151.685 35.5533 152.453 35.072C153.221 34.5907 154.099 34.3501 155.084 34.3501C156.071 34.3501 156.948 34.5907 157.716 35.072C158.484 35.5533 159.089 36.2377 159.529 37.125C159.97 38.0123 160.19 39.0652 160.19 40.2834ZM158.834 40.2834C158.834 39.2833 158.666 38.4391 158.332 37.7511C158 37.063 157.551 36.5422 156.982 36.1887C156.417 35.8353 155.785 35.6586 155.084 35.6586C154.385 35.6586 153.75 35.8353 153.182 36.1887C152.617 36.5422 152.167 37.063 151.832 37.7511C151.501 38.4391 151.335 39.2833 151.335 40.2834C151.335 41.2836 151.501 42.1277 151.832 42.8158C152.167 43.5039 152.617 44.0246 153.182 44.3781C153.75 44.7315 154.385 44.9082 155.084 44.9082C155.785 44.9082 156.417 44.7315 156.982 44.3781C157.551 44.0246 158 43.5039 158.332 42.8158C158.666 42.1277 158.834 41.2836 158.834 40.2834Z" fill="#1F1F1F"/>
<path d="M162.475 46.0588H161.007L165.254 34.508H166.699L170.946 46.0588H169.478L166.022 36.3354H165.931L162.475 46.0588ZM163.017 41.5468H168.935V42.7876H163.017V41.5468Z" fill="#1F1F1F"/>
<path d="M172.747 46.0588V34.508H176.655C177.558 34.508 178.3 34.6622 178.88 34.9705C179.46 35.2751 179.889 35.6943 180.168 36.2282C180.446 36.7622 180.585 37.3694 180.585 38.05C180.585 38.7305 180.446 39.334 180.168 39.8604C179.889 40.3868 179.462 40.8004 178.886 41.1012C178.31 41.3983 177.573 41.5468 176.678 41.5468H173.515V40.2834H176.633C177.25 40.2834 177.747 40.1931 178.124 40.0127C178.504 39.8322 178.779 39.5765 178.948 39.2457C179.121 38.911 179.207 38.5125 179.207 38.05C179.207 37.5875 179.121 37.1833 178.948 36.8374C178.775 36.4915 178.498 36.2245 178.118 36.0365C177.737 35.8447 177.235 35.7488 176.61 35.7488H174.148V46.0588H172.747ZM178.191 40.87L181.038 46.0588H179.411L176.61 40.87H178.191Z" fill="#1F1F1F"/>
<path d="M186.488 46.0588H182.919V34.508H186.646C187.768 34.508 188.728 34.7392 189.526 35.2017C190.325 35.6605 190.936 36.3203 191.362 37.1814C191.787 38.0387 192 39.0652 192 40.2609C192 41.4641 191.785 42.5 191.356 43.3685C190.927 44.2333 190.302 44.8989 189.481 45.3651C188.661 45.8276 187.663 46.0588 186.488 46.0588ZM184.32 44.818H186.398C187.354 44.818 188.147 44.6338 188.775 44.2653C189.404 43.8968 189.873 43.3723 190.182 42.6917C190.49 42.0111 190.644 41.2009 190.644 40.2609C190.644 39.3284 190.492 38.5256 190.187 37.8526C189.882 37.1757 189.427 36.6569 188.82 36.2959C188.214 35.9312 187.46 35.7488 186.556 35.7488H184.32V44.818Z" fill="#1F1F1F"/>
</svg>
